<svg width="1280" height="320" viewBox="0 0 1280 320" fill="none" xmlns="http://www.w3.org/2000/svg">
<mask id="mask0_1_171" style="mask-type:alpha" maskUnits="userSpaceOnUse" x="0" y="0" width="1280" height="320">
<rect width="1280" height="320" rx="16" fill="#C4C4C4"/>
</mask>
<g mask="url(#mask0_1_171)">
<g filter="url(#filter0_f_1_171)">
<circle cx="394.5" cy="248.5" r="496.5" fill="#FF3939"/>
</g>
<g filter="url(#filter1_f_1_171)">
<circle cx="1153.5" cy="144.5" r="245.5" fill="#39FFA0"/>
</g>
<g filter="url(#filter2_f_1_171)">
<circle cx="790.5" cy="381.5" r="496.5" fill="#FF8139"/>
<circle cx="790.5" cy="381.5" r="496.5" fill="#FF8139"/>
</g>
<g filter="url(#filter3_f_1_171)">
<circle cx="56" cy="81" r="163" fill="#FF3998"/>
</g>
</g>
<path d="M67.196 193V163.909H85.2358V167.688H71.5852V176.551H83.9432V180.315H71.5852V193H67.196ZM90.0192 193V171.182H94.1243V174.648H94.3516C94.7493 173.473 95.45 172.55 96.4538 171.878C97.4671 171.196 98.6129 170.855 99.8913 170.855C100.156 170.855 100.469 170.865 100.829 170.884C101.198 170.902 101.487 170.926 101.695 170.955V175.017C101.525 174.97 101.222 174.918 100.786 174.861C100.351 174.795 99.915 174.761 99.4794 174.761C98.4756 174.761 97.5807 174.974 96.7947 175.401C96.0182 175.817 95.4027 176.4 94.9482 177.148C94.4936 177.886 94.2663 178.729 94.2663 179.676V193H90.0192ZM113.993 193.44C111.843 193.44 109.992 192.981 108.439 192.062C106.895 191.134 105.702 189.832 104.859 188.156C104.026 186.471 103.609 184.496 103.609 182.233C103.609 179.998 104.026 178.028 104.859 176.324C105.702 174.619 106.876 173.289 108.382 172.332C109.897 171.376 111.668 170.898 113.695 170.898C114.926 170.898 116.119 171.101 117.274 171.509C118.429 171.916 119.466 172.555 120.385 173.426C121.304 174.297 122.028 175.429 122.558 176.821C123.089 178.204 123.354 179.884 123.354 181.864V183.369H106.01V180.188H119.192C119.192 179.07 118.964 178.08 118.51 177.219C118.055 176.348 117.416 175.661 116.592 175.159C115.778 174.657 114.821 174.406 113.723 174.406C112.53 174.406 111.488 174.7 110.598 175.287C109.717 175.865 109.036 176.622 108.553 177.56C108.079 178.488 107.842 179.496 107.842 180.585V183.071C107.842 184.529 108.098 185.77 108.609 186.793C109.13 187.815 109.855 188.597 110.783 189.136C111.711 189.667 112.795 189.932 114.036 189.932C114.84 189.932 115.574 189.818 116.237 189.591C116.9 189.354 117.473 189.004 117.956 188.54C118.439 188.076 118.808 187.503 119.064 186.821L123.084 187.545C122.762 188.729 122.184 189.766 121.351 190.656C120.527 191.537 119.49 192.223 118.24 192.716C117 193.199 115.584 193.44 113.993 193.44ZM137.469 193.44C135.32 193.44 133.469 192.981 131.915 192.062C130.372 191.134 129.179 189.832 128.336 188.156C127.503 186.471 127.086 184.496 127.086 182.233C127.086 179.998 127.503 178.028 128.336 176.324C129.179 174.619 130.353 173.289 131.859 172.332C133.374 171.376 135.145 170.898 137.171 170.898C138.402 170.898 139.595 171.101 140.751 171.509C141.906 171.916 142.943 172.555 143.862 173.426C144.78 174.297 145.504 175.429 146.035 176.821C146.565 178.204 146.83 179.884 146.83 181.864V183.369H129.487V180.188H142.668C142.668 179.07 142.441 178.08 141.987 177.219C141.532 176.348 140.893 175.661 140.069 175.159C139.254 174.657 138.298 174.406 137.2 174.406C136.006 174.406 134.965 174.7 134.075 175.287C133.194 175.865 132.512 176.622 132.029 177.56C131.556 178.488 131.319 179.496 131.319 180.585V183.071C131.319 184.529 131.575 185.77 132.086 186.793C132.607 187.815 133.331 188.597 134.259 189.136C135.187 189.667 136.272 189.932 137.512 189.932C138.317 189.932 139.051 189.818 139.714 189.591C140.377 189.354 140.95 189.004 141.433 188.54C141.915 188.076 142.285 187.503 142.54 186.821L146.56 187.545C146.238 188.729 145.661 189.766 144.827 190.656C144.004 191.537 142.967 192.223 141.717 192.716C140.476 193.199 139.06 193.44 137.469 193.44ZM185.95 163.909V193H181.915L167.129 171.665H166.859V193H162.469V163.909H166.532L181.333 185.273H181.603V163.909H185.95ZM192.352 193V163.909H210.392V167.688H196.741V176.551H209.099V180.315H196.741V193H192.352ZM214.355 167.688V163.909H236.869V167.688H227.793V193H223.418V167.688H214.355ZM262.473 171.182V174.591H250.143V171.182H262.473ZM253.524 193V168.653C253.524 167.29 253.822 166.158 254.419 165.259C255.016 164.349 255.806 163.672 256.791 163.227C257.776 162.773 258.846 162.545 260.001 162.545C260.854 162.545 261.583 162.616 262.189 162.759C262.795 162.891 263.245 163.014 263.538 163.128L262.544 166.565C262.345 166.509 262.089 166.442 261.777 166.366C261.464 166.281 261.086 166.239 260.641 166.239C259.608 166.239 258.87 166.494 258.425 167.006C257.989 167.517 257.771 168.256 257.771 169.222V193H253.524ZM275.186 193.44C273.141 193.44 271.356 192.972 269.831 192.034C268.306 191.097 267.123 189.785 266.28 188.099C265.437 186.414 265.016 184.444 265.016 182.19C265.016 179.927 265.437 177.948 266.28 176.253C267.123 174.558 268.306 173.241 269.831 172.304C271.356 171.366 273.141 170.898 275.186 170.898C277.232 170.898 279.017 171.366 280.541 172.304C282.066 173.241 283.25 174.558 284.092 176.253C284.935 177.948 285.357 179.927 285.357 182.19C285.357 184.444 284.935 186.414 284.092 188.099C283.25 189.785 282.066 191.097 280.541 192.034C279.017 192.972 277.232 193.44 275.186 193.44ZM275.2 189.875C276.526 189.875 277.625 189.525 278.496 188.824C279.367 188.123 280.011 187.19 280.428 186.026C280.854 184.861 281.067 183.578 281.067 182.176C281.067 180.784 280.854 179.506 280.428 178.341C280.011 177.167 279.367 176.224 278.496 175.514C277.625 174.804 276.526 174.449 275.2 174.449C273.865 174.449 272.757 174.804 271.876 175.514C271.005 176.224 270.357 177.167 269.93 178.341C269.514 179.506 269.305 180.784 269.305 182.176C269.305 183.578 269.514 184.861 269.93 186.026C270.357 187.19 271.005 188.123 271.876 188.824C272.757 189.525 273.865 189.875 275.2 189.875ZM290.097 193V171.182H294.202V174.648H294.43C294.827 173.473 295.528 172.55 296.532 171.878C297.545 171.196 298.691 170.855 299.969 170.855C300.235 170.855 300.547 170.865 300.907 170.884C301.276 170.902 301.565 170.926 301.773 170.955V175.017C301.603 174.97 301.3 174.918 300.864 174.861C300.429 174.795 299.993 174.761 299.558 174.761C298.554 174.761 297.659 174.974 296.873 175.401C296.096 175.817 295.481 176.4 295.026 177.148C294.572 177.886 294.344 178.729 294.344 179.676V193H290.097ZM325.438 193.44C323.289 193.44 321.437 192.981 319.884 192.062C318.341 191.134 317.147 189.832 316.305 188.156C315.471 186.471 315.055 184.496 315.055 182.233C315.055 179.998 315.471 178.028 316.305 176.324C317.147 174.619 318.322 173.289 319.827 172.332C321.343 171.376 323.113 170.898 325.14 170.898C326.371 170.898 327.564 171.101 328.719 171.509C329.875 171.916 330.912 172.555 331.83 173.426C332.749 174.297 333.473 175.429 334.004 176.821C334.534 178.204 334.799 179.884 334.799 181.864V183.369H317.455V180.188H330.637C330.637 179.07 330.41 178.08 329.955 177.219C329.501 176.348 328.862 175.661 328.038 175.159C327.223 174.657 326.267 174.406 325.168 174.406C323.975 174.406 322.933 174.7 322.043 175.287C321.163 175.865 320.481 176.622 319.998 177.56C319.524 178.488 319.288 179.496 319.288 180.585V183.071C319.288 184.529 319.543 185.77 320.055 186.793C320.576 187.815 321.3 188.597 322.228 189.136C323.156 189.667 324.24 189.932 325.481 189.932C326.286 189.932 327.02 189.818 327.683 189.591C328.345 189.354 328.918 189.004 329.401 188.54C329.884 188.076 330.254 187.503 330.509 186.821L334.529 187.545C334.207 188.729 333.629 189.766 332.796 190.656C331.972 191.537 330.935 192.223 329.685 192.716C328.445 193.199 327.029 193.44 325.438 193.44ZM345.861 193.483C344.478 193.483 343.228 193.227 342.111 192.716C340.993 192.195 340.108 191.442 339.455 190.457C338.811 189.473 338.489 188.265 338.489 186.835C338.489 185.604 338.725 184.591 339.199 183.795C339.672 183 340.312 182.37 341.116 181.906C341.921 181.442 342.821 181.092 343.815 180.855C344.81 180.618 345.823 180.438 346.855 180.315C348.162 180.164 349.223 180.041 350.037 179.946C350.851 179.842 351.443 179.676 351.812 179.449C352.182 179.222 352.366 178.852 352.366 178.341V178.241C352.366 177.001 352.016 176.04 351.315 175.358C350.624 174.676 349.592 174.335 348.219 174.335C346.789 174.335 345.662 174.652 344.838 175.287C344.024 175.912 343.46 176.608 343.148 177.375L339.156 176.466C339.63 175.14 340.321 174.07 341.23 173.256C342.149 172.432 343.205 171.835 344.398 171.466C345.591 171.087 346.846 170.898 348.162 170.898C349.033 170.898 349.956 171.002 350.932 171.21C351.917 171.409 352.835 171.778 353.688 172.318C354.549 172.858 355.255 173.63 355.804 174.634C356.353 175.628 356.628 176.92 356.628 178.511V193H352.48V190.017H352.31C352.035 190.566 351.623 191.106 351.074 191.636C350.525 192.167 349.819 192.607 348.957 192.957C348.096 193.308 347.063 193.483 345.861 193.483ZM346.784 190.074C347.958 190.074 348.962 189.842 349.795 189.378C350.638 188.914 351.277 188.308 351.713 187.56C352.158 186.802 352.381 185.992 352.381 185.131V182.318C352.229 182.47 351.936 182.612 351.5 182.744C351.074 182.867 350.586 182.976 350.037 183.071C349.488 183.156 348.953 183.237 348.432 183.312C347.911 183.379 347.475 183.436 347.125 183.483C346.301 183.587 345.548 183.762 344.866 184.009C344.194 184.255 343.654 184.61 343.247 185.074C342.849 185.528 342.651 186.134 342.651 186.892C342.651 187.943 343.039 188.739 343.815 189.278C344.592 189.809 345.581 190.074 346.784 190.074ZM362.285 193V171.182H366.39V174.648H366.617C367.015 173.473 367.716 172.55 368.719 171.878C369.733 171.196 370.879 170.855 372.157 170.855C372.422 170.855 372.735 170.865 373.094 170.884C373.464 170.902 373.753 170.926 373.961 170.955V175.017C373.79 174.97 373.487 174.918 373.052 174.861C372.616 174.795 372.181 174.761 371.745 174.761C370.741 174.761 369.846 174.974 369.06 175.401C368.284 175.817 367.668 176.4 367.214 177.148C366.759 177.886 366.532 178.729 366.532 179.676V193H362.285ZM381.884 163.909V193H377.636V163.909H381.884ZM390.282 201.182C389.647 201.182 389.07 201.13 388.549 201.026C388.028 200.931 387.64 200.827 387.384 200.713L388.407 197.233C389.183 197.441 389.875 197.531 390.481 197.503C391.087 197.474 391.622 197.247 392.086 196.821C392.559 196.395 392.976 195.699 393.336 194.733L393.862 193.284L385.879 171.182H390.424L395.95 188.114H396.177L401.702 171.182H406.262L397.271 195.912C396.854 197.048 396.324 198.009 395.68 198.795C395.036 199.591 394.269 200.188 393.379 200.585C392.488 200.983 391.456 201.182 390.282 201.182ZM421.18 193V163.909H425.428V174.719H425.683C425.929 174.264 426.285 173.739 426.749 173.142C427.213 172.545 427.857 172.025 428.68 171.58C429.504 171.125 430.593 170.898 431.947 170.898C433.709 170.898 435.281 171.343 436.663 172.233C438.046 173.123 439.13 174.406 439.916 176.082C440.712 177.759 441.109 179.776 441.109 182.134C441.109 184.491 440.716 186.513 439.93 188.199C439.144 189.875 438.065 191.168 436.692 192.077C435.319 192.976 433.751 193.426 431.99 193.426C430.664 193.426 429.58 193.204 428.737 192.759C427.904 192.313 427.25 191.793 426.777 191.196C426.304 190.599 425.939 190.069 425.683 189.605H425.328V193H421.18ZM425.342 182.091C425.342 183.625 425.565 184.97 426.01 186.125C426.455 187.28 427.099 188.185 427.942 188.838C428.785 189.482 429.817 189.804 431.038 189.804C432.307 189.804 433.368 189.468 434.22 188.795C435.072 188.114 435.716 187.19 436.152 186.026C436.597 184.861 436.82 183.549 436.82 182.091C436.82 180.652 436.602 179.359 436.166 178.213C435.74 177.067 435.096 176.163 434.234 175.5C433.382 174.837 432.317 174.506 431.038 174.506C429.807 174.506 428.766 174.823 427.913 175.457C427.071 176.092 426.431 176.977 425.996 178.114C425.56 179.25 425.342 180.576 425.342 182.091ZM445.879 193V171.182H450.126V193H445.879ZM448.023 167.815C447.285 167.815 446.65 167.569 446.12 167.077C445.599 166.575 445.339 165.978 445.339 165.287C445.339 164.586 445.599 163.99 446.12 163.497C446.65 162.995 447.285 162.744 448.023 162.744C448.762 162.744 449.392 162.995 449.913 163.497C450.443 163.99 450.708 164.586 450.708 165.287C450.708 165.978 450.443 166.575 449.913 167.077C449.392 167.569 448.762 167.815 448.023 167.815ZM455.839 193V171.182H459.945V174.648H460.172C460.57 173.473 461.27 172.55 462.274 171.878C463.287 171.196 464.433 170.855 465.712 170.855C465.977 170.855 466.289 170.865 466.649 170.884C467.018 170.902 467.307 170.926 467.516 170.955V175.017C467.345 174.97 467.042 174.918 466.607 174.861C466.171 174.795 465.735 174.761 465.3 174.761C464.296 174.761 463.401 174.974 462.615 175.401C461.839 175.817 461.223 176.4 460.768 177.148C460.314 177.886 460.087 178.729 460.087 179.676V193H455.839ZM478.577 193.426C476.816 193.426 475.244 192.976 473.862 192.077C472.488 191.168 471.409 189.875 470.623 188.199C469.846 186.513 469.458 184.491 469.458 182.134C469.458 179.776 469.851 177.759 470.637 176.082C471.433 174.406 472.522 173.123 473.904 172.233C475.287 171.343 476.854 170.898 478.606 170.898C479.96 170.898 481.049 171.125 481.873 171.58C482.706 172.025 483.35 172.545 483.805 173.142C484.269 173.739 484.629 174.264 484.884 174.719H485.14V163.909H489.387V193H485.239V189.605H484.884C484.629 190.069 484.259 190.599 483.776 191.196C483.303 191.793 482.649 192.313 481.816 192.759C480.983 193.204 479.903 193.426 478.577 193.426ZM479.515 189.804C480.737 189.804 481.769 189.482 482.612 188.838C483.464 188.185 484.108 187.28 484.543 186.125C484.988 184.97 485.211 183.625 485.211 182.091C485.211 180.576 484.993 179.25 484.558 178.114C484.122 176.977 483.483 176.092 482.64 175.457C481.797 174.823 480.755 174.506 479.515 174.506C478.237 174.506 477.171 174.837 476.319 175.5C475.467 176.163 474.823 177.067 474.387 178.213C473.961 179.359 473.748 180.652 473.748 182.091C473.748 183.549 473.966 184.861 474.401 186.026C474.837 187.19 475.481 188.114 476.333 188.795C477.195 189.468 478.255 189.804 479.515 189.804ZM511.798 176.509L507.949 177.19C507.788 176.698 507.532 176.229 507.182 175.784C506.841 175.339 506.377 174.974 505.79 174.69C505.203 174.406 504.469 174.264 503.588 174.264C502.385 174.264 501.382 174.534 500.577 175.074C499.772 175.604 499.369 176.291 499.369 177.134C499.369 177.863 499.639 178.45 500.179 178.895C500.719 179.34 501.59 179.705 502.793 179.989L506.259 180.784C508.266 181.248 509.762 181.963 510.747 182.929C511.732 183.895 512.224 185.15 512.224 186.693C512.224 188 511.846 189.165 511.088 190.188C510.34 191.201 509.294 191.996 507.949 192.574C506.614 193.152 505.065 193.44 503.304 193.44C500.861 193.44 498.867 192.92 497.324 191.878C495.78 190.827 494.833 189.335 494.483 187.403L498.588 186.778C498.844 187.848 499.369 188.658 500.165 189.207C500.96 189.747 501.997 190.017 503.276 190.017C504.668 190.017 505.78 189.728 506.614 189.151C507.447 188.563 507.864 187.848 507.864 187.006C507.864 186.324 507.608 185.751 507.097 185.287C506.595 184.823 505.823 184.473 504.781 184.236L501.088 183.426C499.052 182.962 497.546 182.223 496.571 181.21C495.605 180.197 495.122 178.914 495.122 177.361C495.122 176.073 495.482 174.946 496.202 173.98C496.921 173.014 497.916 172.261 499.185 171.722C500.454 171.172 501.907 170.898 503.545 170.898C505.903 170.898 507.759 171.409 509.114 172.432C510.468 173.445 511.363 174.804 511.798 176.509Z" fill="#111111"/>
<path d="M73.7159 237.091C73.6307 236.371 73.285 235.812 72.679 235.415C72.0729 235.017 71.3295 234.818 70.4489 234.818C69.8049 234.818 69.2415 234.922 68.7585 235.131C68.2803 235.339 67.9063 235.625 67.6364 235.99C67.3712 236.355 67.2386 236.769 67.2386 237.233C67.2386 237.621 67.331 237.955 67.5156 238.234C67.705 238.509 67.9465 238.739 68.2401 238.923C68.5336 239.103 68.8414 239.252 69.1634 239.371C69.4853 239.484 69.7812 239.577 70.0511 239.648L71.5284 240.045C71.9072 240.145 72.3286 240.282 72.7926 240.457C73.2614 240.633 73.7088 240.872 74.1349 241.175C74.5658 241.473 74.9209 241.857 75.2003 242.325C75.4796 242.794 75.6193 243.369 75.6193 244.051C75.6193 244.837 75.4134 245.547 75.0014 246.182C74.5942 246.816 73.9976 247.321 73.2116 247.695C72.4304 248.069 71.4811 248.256 70.3636 248.256C69.322 248.256 68.42 248.088 67.6577 247.751C66.9001 247.415 66.3035 246.946 65.8679 246.345C65.437 245.744 65.1932 245.045 65.1364 244.25H66.9545C67.0019 244.799 67.1866 245.254 67.5085 245.614C67.8352 245.969 68.2472 246.234 68.7443 246.409C69.2462 246.58 69.786 246.665 70.3636 246.665C71.036 246.665 71.6397 246.556 72.1747 246.338C72.7098 246.116 73.1335 245.808 73.446 245.415C73.7585 245.017 73.9148 244.553 73.9148 244.023C73.9148 243.54 73.7798 243.147 73.5099 242.844C73.2401 242.541 72.8849 242.295 72.4446 242.105C72.0043 241.916 71.5284 241.75 71.017 241.608L69.2273 241.097C68.0909 240.77 67.1913 240.304 66.5284 239.697C65.8655 239.091 65.5341 238.298 65.5341 237.318C65.5341 236.504 65.7543 235.794 66.1946 235.188C66.6397 234.577 67.2363 234.103 67.9844 233.767C68.7372 233.426 69.5777 233.256 70.5057 233.256C71.4432 233.256 72.2765 233.424 73.0057 233.76C73.7348 234.091 74.3125 234.546 74.7386 235.124C75.1695 235.701 75.3968 236.357 75.4205 237.091H73.7159ZM78.288 248V237.091H79.9641V248H78.288ZM79.1403 235.273C78.8136 235.273 78.5318 235.161 78.2951 234.939C78.0631 234.716 77.9471 234.449 77.9471 234.136C77.9471 233.824 78.0631 233.556 78.2951 233.334C78.5318 233.111 78.8136 233 79.1403 233C79.467 233 79.7463 233.111 79.9783 233.334C80.2151 233.556 80.3335 233.824 80.3335 234.136C80.3335 234.449 80.2151 234.716 79.9783 234.939C79.7463 235.161 79.467 235.273 79.1403 235.273ZM87.4375 252.318C86.6278 252.318 85.9318 252.214 85.3494 252.006C84.767 251.802 84.2817 251.532 83.8935 251.196C83.5099 250.865 83.2045 250.509 82.9773 250.131L84.3125 249.193C84.464 249.392 84.6558 249.619 84.8878 249.875C85.1198 250.135 85.437 250.36 85.8395 250.55C86.2467 250.744 86.7794 250.841 87.4375 250.841C88.3182 250.841 89.045 250.628 89.6179 250.202C90.1908 249.776 90.4773 249.108 90.4773 248.199V245.983H90.3352C90.2121 246.182 90.0369 246.428 89.8097 246.722C89.5871 247.01 89.2652 247.268 88.8438 247.496C88.4271 247.718 87.8636 247.83 87.1534 247.83C86.2727 247.83 85.482 247.621 84.7812 247.205C84.0852 246.788 83.5336 246.182 83.1264 245.386C82.724 244.591 82.5227 243.625 82.5227 242.489C82.5227 241.371 82.7192 240.398 83.1122 239.57C83.5052 238.736 84.0521 238.092 84.7528 237.638C85.4536 237.179 86.2633 236.949 87.1818 236.949C87.892 236.949 88.4555 237.067 88.8722 237.304C89.2936 237.536 89.6155 237.801 89.8381 238.099C90.0653 238.393 90.2405 238.634 90.3636 238.824H90.5341V237.091H92.1534V248.312C92.1534 249.25 91.9403 250.012 91.5142 250.599C91.0928 251.191 90.5246 251.625 89.8097 251.899C89.0994 252.179 88.3087 252.318 87.4375 252.318ZM87.3807 246.324C88.053 246.324 88.6212 246.17 89.0852 245.862C89.5492 245.554 89.902 245.112 90.1435 244.534C90.3849 243.956 90.5057 243.265 90.5057 242.46C90.5057 241.674 90.3873 240.981 90.1506 240.379C89.9138 239.778 89.5634 239.307 89.0994 238.966C88.6354 238.625 88.0625 238.455 87.3807 238.455C86.6705 238.455 86.0786 238.634 85.6051 238.994C85.1364 239.354 84.7836 239.837 84.5469 240.443C84.3149 241.049 84.1989 241.722 84.1989 242.46C84.1989 243.218 84.3172 243.888 84.554 244.47C84.7955 245.048 85.1506 245.502 85.6193 245.834C86.0928 246.161 86.6799 246.324 87.3807 246.324ZM96.8977 241.438V248H95.2216V237.091H96.8409V238.795H96.983C97.2386 238.241 97.6269 237.796 98.1477 237.46C98.6686 237.119 99.3409 236.949 100.165 236.949C100.903 236.949 101.55 237.1 102.104 237.403C102.658 237.702 103.089 238.156 103.396 238.767C103.704 239.373 103.858 240.14 103.858 241.068V248H102.182V241.182C102.182 240.325 101.959 239.657 101.514 239.179C101.069 238.696 100.458 238.455 99.6818 238.455C99.1468 238.455 98.6686 238.571 98.2472 238.803C97.8305 239.035 97.5014 239.373 97.2599 239.818C97.0185 240.263 96.8977 240.803 96.8977 241.438ZM119.421 243.54V237.091H121.097V248H119.421V246.153H119.307C119.051 246.707 118.654 247.179 118.114 247.567C117.574 247.95 116.892 248.142 116.069 248.142C115.387 248.142 114.781 247.993 114.25 247.695C113.72 247.392 113.303 246.937 113 246.331C112.697 245.72 112.546 244.951 112.546 244.023V237.091H114.222V243.909C114.222 244.705 114.444 245.339 114.89 245.812C115.339 246.286 115.912 246.523 116.608 246.523C117.025 246.523 117.449 246.416 117.88 246.203C118.315 245.99 118.68 245.663 118.973 245.223C119.272 244.783 119.421 244.222 119.421 243.54ZM124.167 252.091V237.091H125.786V238.824H125.985C126.108 238.634 126.279 238.393 126.496 238.099C126.719 237.801 127.036 237.536 127.448 237.304C127.865 237.067 128.428 236.949 129.138 236.949C130.057 236.949 130.867 237.179 131.567 237.638C132.268 238.097 132.815 238.748 133.208 239.591C133.601 240.434 133.798 241.428 133.798 242.574C133.798 243.729 133.601 244.731 133.208 245.578C132.815 246.421 132.271 247.074 131.575 247.538C130.879 247.998 130.076 248.227 129.167 248.227C128.466 248.227 127.905 248.111 127.484 247.879C127.062 247.643 126.738 247.375 126.511 247.077C126.283 246.774 126.108 246.523 125.985 246.324H125.843V252.091H124.167ZM125.815 242.545C125.815 243.369 125.935 244.096 126.177 244.726C126.418 245.351 126.771 245.841 127.235 246.196C127.699 246.546 128.267 246.722 128.94 246.722C129.64 246.722 130.225 246.537 130.694 246.168C131.167 245.794 131.522 245.292 131.759 244.662C132.001 244.027 132.121 243.322 132.121 242.545C132.121 241.778 132.003 241.087 131.766 240.472C131.534 239.851 131.182 239.361 130.708 239.001C130.239 238.637 129.65 238.455 128.94 238.455C128.258 238.455 127.685 238.627 127.221 238.973C126.757 239.314 126.406 239.792 126.17 240.408C125.933 241.018 125.815 241.731 125.815 242.545ZM146.724 237.091V238.511H141.07V237.091H146.724ZM142.718 234.477H144.394V244.875C144.394 245.348 144.463 245.704 144.6 245.94C144.742 246.172 144.922 246.329 145.14 246.409C145.362 246.485 145.597 246.523 145.843 246.523C146.028 246.523 146.179 246.513 146.298 246.494C146.416 246.471 146.511 246.452 146.582 246.438L146.923 247.943C146.809 247.986 146.65 248.028 146.447 248.071C146.243 248.118 145.985 248.142 145.673 248.142C145.199 248.142 144.735 248.04 144.281 247.837C143.831 247.633 143.457 247.323 143.158 246.906C142.865 246.49 142.718 245.964 142.718 245.33V234.477ZM153.56 248.227C152.575 248.227 151.711 247.993 150.967 247.524C150.229 247.055 149.651 246.4 149.234 245.557C148.822 244.714 148.616 243.729 148.616 242.602C148.616 241.466 148.822 240.474 149.234 239.626C149.651 238.779 150.229 238.121 150.967 237.652C151.711 237.183 152.575 236.949 153.56 236.949C154.545 236.949 155.406 237.183 156.145 237.652C156.888 238.121 157.466 238.779 157.878 239.626C158.295 240.474 158.503 241.466 158.503 242.602C158.503 243.729 158.295 244.714 157.878 245.557C157.466 246.4 156.888 247.055 156.145 247.524C155.406 247.993 154.545 248.227 153.56 248.227ZM153.56 246.722C154.308 246.722 154.923 246.53 155.406 246.146C155.889 245.763 156.247 245.259 156.479 244.634C156.711 244.009 156.827 243.331 156.827 242.602C156.827 241.873 156.711 241.194 156.479 240.564C156.247 239.934 155.889 239.425 155.406 239.037C154.923 238.649 154.308 238.455 153.56 238.455C152.812 238.455 152.196 238.649 151.713 239.037C151.23 239.425 150.873 239.934 150.641 240.564C150.409 241.194 150.293 241.873 150.293 242.602C150.293 243.331 150.409 244.009 150.641 244.634C150.873 245.259 151.23 245.763 151.713 246.146C152.196 246.53 152.812 246.722 153.56 246.722ZM165.181 248.227C164.272 248.227 163.469 247.998 162.773 247.538C162.077 247.074 161.533 246.421 161.14 245.578C160.747 244.731 160.55 243.729 160.55 242.574C160.55 241.428 160.747 240.434 161.14 239.591C161.533 238.748 162.079 238.097 162.78 237.638C163.481 237.179 164.291 236.949 165.209 236.949C165.919 236.949 166.48 237.067 166.892 237.304C167.309 237.536 167.626 237.801 167.844 238.099C168.067 238.393 168.239 238.634 168.363 238.824H168.505V233.455H170.181V248H168.561V246.324H168.363C168.239 246.523 168.064 246.774 167.837 247.077C167.61 247.375 167.285 247.643 166.864 247.879C166.443 248.111 165.882 248.227 165.181 248.227ZM165.408 246.722C166.08 246.722 166.649 246.546 167.113 246.196C167.577 245.841 167.929 245.351 168.171 244.726C168.412 244.096 168.533 243.369 168.533 242.545C168.533 241.731 168.415 241.018 168.178 240.408C167.941 239.792 167.591 239.314 167.127 238.973C166.663 238.627 166.09 238.455 165.408 238.455C164.698 238.455 164.106 238.637 163.632 239.001C163.164 239.361 162.811 239.851 162.574 240.472C162.342 241.087 162.226 241.778 162.226 242.545C162.226 243.322 162.345 244.027 162.581 244.662C162.823 245.292 163.178 245.794 163.647 246.168C164.12 246.537 164.707 246.722 165.408 246.722ZM176.694 248.256C176.002 248.256 175.375 248.125 174.811 247.865C174.248 247.6 173.801 247.219 173.469 246.722C173.138 246.22 172.972 245.614 172.972 244.903C172.972 244.278 173.095 243.772 173.341 243.384C173.587 242.991 173.917 242.683 174.328 242.46C174.74 242.238 175.195 242.072 175.692 241.963C176.194 241.849 176.698 241.759 177.205 241.693C177.868 241.608 178.405 241.544 178.817 241.501C179.234 241.454 179.537 241.376 179.726 241.267C179.92 241.158 180.017 240.969 180.017 240.699V240.642C180.017 239.941 179.826 239.397 179.442 239.009C179.063 238.62 178.488 238.426 177.716 238.426C176.916 238.426 176.289 238.601 175.834 238.952C175.38 239.302 175.06 239.676 174.875 240.074L173.284 239.506C173.569 238.843 173.947 238.327 174.421 237.957C174.899 237.583 175.42 237.323 175.983 237.176C176.551 237.025 177.11 236.949 177.659 236.949C178.01 236.949 178.412 236.991 178.867 237.077C179.326 237.157 179.769 237.325 180.195 237.581C180.626 237.837 180.983 238.223 181.267 238.739C181.551 239.255 181.694 239.946 181.694 240.812V248H180.017V246.523H179.932C179.819 246.759 179.629 247.013 179.364 247.283C179.099 247.553 178.746 247.782 178.306 247.972C177.865 248.161 177.328 248.256 176.694 248.256ZM176.949 246.75C177.612 246.75 178.171 246.62 178.625 246.359C179.085 246.099 179.43 245.763 179.662 245.351C179.899 244.939 180.017 244.506 180.017 244.051V242.517C179.946 242.602 179.79 242.68 179.549 242.751C179.312 242.818 179.037 242.877 178.725 242.929C178.417 242.976 178.116 243.019 177.823 243.057C177.534 243.09 177.3 243.118 177.12 243.142C176.684 243.199 176.277 243.291 175.898 243.419C175.524 243.542 175.221 243.729 174.989 243.98C174.762 244.226 174.648 244.562 174.648 244.989C174.648 245.571 174.864 246.011 175.294 246.31C175.73 246.603 176.282 246.75 176.949 246.75ZM185.442 252.091C185.158 252.091 184.904 252.067 184.682 252.02C184.459 251.977 184.305 251.935 184.22 251.892L184.646 250.415C185.054 250.519 185.413 250.557 185.726 250.528C186.038 250.5 186.315 250.36 186.557 250.109C186.803 249.863 187.028 249.463 187.232 248.909L187.544 248.057L183.51 237.091H185.328L188.339 245.784H188.453L191.464 237.091H193.283L188.652 249.591C188.444 250.154 188.186 250.621 187.878 250.99C187.57 251.364 187.213 251.641 186.805 251.821C186.403 252.001 185.948 252.091 185.442 252.091ZM204.33 248.256C203.639 248.256 203.012 248.125 202.448 247.865C201.885 247.6 201.437 247.219 201.106 246.722C200.774 246.22 200.609 245.614 200.609 244.903C200.609 244.278 200.732 243.772 200.978 243.384C201.224 242.991 201.553 242.683 201.965 242.46C202.377 242.238 202.832 242.072 203.329 241.963C203.831 241.849 204.335 241.759 204.842 241.693C205.504 241.608 206.042 241.544 206.454 241.501C206.871 241.454 207.174 241.376 207.363 241.267C207.557 241.158 207.654 240.969 207.654 240.699V240.642C207.654 239.941 207.462 239.397 207.079 239.009C206.7 238.62 206.125 238.426 205.353 238.426C204.553 238.426 203.925 238.601 203.471 238.952C203.016 239.302 202.697 239.676 202.512 240.074L200.921 239.506C201.205 238.843 201.584 238.327 202.058 237.957C202.536 237.583 203.057 237.323 203.62 237.176C204.188 237.025 204.747 236.949 205.296 236.949C205.647 236.949 206.049 236.991 206.504 237.077C206.963 237.157 207.406 237.325 207.832 237.581C208.263 237.837 208.62 238.223 208.904 238.739C209.188 239.255 209.33 239.946 209.33 240.812V248H207.654V246.523H207.569C207.455 246.759 207.266 247.013 207.001 247.283C206.736 247.553 206.383 247.782 205.942 247.972C205.502 248.161 204.965 248.256 204.33 248.256ZM204.586 246.75C205.249 246.75 205.808 246.62 206.262 246.359C206.721 246.099 207.067 245.763 207.299 245.351C207.536 244.939 207.654 244.506 207.654 244.051V242.517C207.583 242.602 207.427 242.68 207.185 242.751C206.949 242.818 206.674 242.877 206.362 242.929C206.054 242.976 205.753 243.019 205.46 243.057C205.171 243.09 204.936 243.118 204.756 243.142C204.321 243.199 203.914 243.291 203.535 243.419C203.161 243.542 202.858 243.729 202.626 243.98C202.398 244.226 202.285 244.562 202.285 244.989C202.285 245.571 202.5 246.011 202.931 246.31C203.367 246.603 203.918 246.75 204.586 246.75ZM214.066 241.438V248H212.39V237.091H214.009V238.795H214.151C214.407 238.241 214.795 237.796 215.316 237.46C215.837 237.119 216.509 236.949 217.333 236.949C218.071 236.949 218.718 237.1 219.272 237.403C219.826 237.702 220.257 238.156 220.564 238.767C220.872 239.373 221.026 240.14 221.026 241.068V248H219.35V241.182C219.35 240.325 219.127 239.657 218.682 239.179C218.237 238.696 217.626 238.455 216.85 238.455C216.315 238.455 215.837 238.571 215.415 238.803C214.998 239.035 214.669 239.373 214.428 239.818C214.186 240.263 214.066 240.803 214.066 241.438ZM228.208 248.227C227.299 248.227 226.496 247.998 225.8 247.538C225.104 247.074 224.56 246.421 224.167 245.578C223.774 244.731 223.577 243.729 223.577 242.574C223.577 241.428 223.774 240.434 224.167 239.591C224.56 238.748 225.107 238.097 225.808 237.638C226.508 237.179 227.318 236.949 228.237 236.949C228.947 236.949 229.508 237.067 229.92 237.304C230.336 237.536 230.654 237.801 230.871 238.099C231.094 238.393 231.267 238.634 231.39 238.824H231.532V233.455H233.208V248H231.589V246.324H231.39C231.267 246.523 231.092 246.774 230.864 247.077C230.637 247.375 230.313 247.643 229.891 247.879C229.47 248.111 228.909 248.227 228.208 248.227ZM228.435 246.722C229.108 246.722 229.676 246.546 230.14 246.196C230.604 245.841 230.957 245.351 231.198 244.726C231.44 244.096 231.56 243.369 231.56 242.545C231.56 241.731 231.442 241.018 231.205 240.408C230.969 239.792 230.618 239.314 230.154 238.973C229.69 238.627 229.117 238.455 228.435 238.455C227.725 238.455 227.133 238.637 226.66 239.001C226.191 239.361 225.838 239.851 225.602 240.472C225.37 241.087 225.254 241.778 225.254 242.545C225.254 243.322 225.372 244.027 225.609 244.662C225.85 245.292 226.205 245.794 226.674 246.168C227.147 246.537 227.735 246.722 228.435 246.722ZM243.215 252.091C242.931 252.091 242.678 252.067 242.455 252.02C242.233 251.977 242.079 251.935 241.994 251.892L242.42 250.415C242.827 250.519 243.187 250.557 243.499 250.528C243.812 250.5 244.089 250.36 244.33 250.109C244.576 249.863 244.801 249.463 245.005 248.909L245.317 248.057L241.283 237.091H243.102L246.113 245.784H246.227L249.238 237.091H251.056L246.425 249.591C246.217 250.154 245.959 250.621 245.651 250.99C245.344 251.364 244.986 251.641 244.579 251.821C244.176 252.001 243.722 252.091 243.215 252.091ZM257.31 248.227C256.325 248.227 255.461 247.993 254.717 247.524C253.979 247.055 253.401 246.4 252.984 245.557C252.572 244.714 252.366 243.729 252.366 242.602C252.366 241.466 252.572 240.474 252.984 239.626C253.401 238.779 253.979 238.121 254.717 237.652C255.461 237.183 256.325 236.949 257.31 236.949C258.295 236.949 259.156 237.183 259.895 237.652C260.638 238.121 261.216 238.779 261.628 239.626C262.045 240.474 262.253 241.466 262.253 242.602C262.253 243.729 262.045 244.714 261.628 245.557C261.216 246.4 260.638 247.055 259.895 247.524C259.156 247.993 258.295 248.227 257.31 248.227ZM257.31 246.722C258.058 246.722 258.673 246.53 259.156 246.146C259.639 245.763 259.997 245.259 260.229 244.634C260.461 244.009 260.577 243.331 260.577 242.602C260.577 241.873 260.461 241.194 260.229 240.564C259.997 239.934 259.639 239.425 259.156 239.037C258.673 238.649 258.058 238.455 257.31 238.455C256.562 238.455 255.946 238.649 255.463 239.037C254.98 239.425 254.623 239.934 254.391 240.564C254.159 241.194 254.043 241.873 254.043 242.602C254.043 243.331 254.159 244.009 254.391 244.634C254.623 245.259 254.98 245.763 255.463 246.146C255.946 246.53 256.562 246.722 257.31 246.722ZM271.686 243.54V237.091H273.363V248H271.686V246.153H271.573C271.317 246.707 270.919 247.179 270.38 247.567C269.84 247.95 269.158 248.142 268.334 248.142C267.652 248.142 267.046 247.993 266.516 247.695C265.986 247.392 265.569 246.937 265.266 246.331C264.963 245.72 264.811 244.951 264.811 244.023V237.091H266.488V243.909C266.488 244.705 266.71 245.339 267.155 245.812C267.605 246.286 268.178 246.523 268.874 246.523C269.291 246.523 269.714 246.416 270.145 246.203C270.581 245.99 270.945 245.663 271.239 245.223C271.537 244.783 271.686 244.222 271.686 243.54ZM278.203 233.455V234.733C278.203 235.121 278.132 235.536 277.99 235.976C277.852 236.411 277.649 236.835 277.379 237.247C277.114 237.654 276.792 238.009 276.413 238.312L275.504 237.574C275.802 237.148 276.06 236.705 276.278 236.246C276.501 235.782 276.612 235.287 276.612 234.761V233.455H278.203ZM282.093 233.455V248H280.417V233.455H282.093ZM286.839 233.455V248H285.163V233.455H286.839ZM299.938 252.318C299.128 252.318 298.432 252.214 297.849 252.006C297.267 251.802 296.782 251.532 296.393 251.196C296.01 250.865 295.705 250.509 295.477 250.131L296.812 249.193C296.964 249.392 297.156 249.619 297.388 249.875C297.62 250.135 297.937 250.36 298.339 250.55C298.747 250.744 299.279 250.841 299.938 250.841C300.818 250.841 301.545 250.628 302.118 250.202C302.691 249.776 302.977 249.108 302.977 248.199V245.983H302.835C302.712 246.182 302.537 246.428 302.31 246.722C302.087 247.01 301.765 247.268 301.344 247.496C300.927 247.718 300.364 247.83 299.653 247.83C298.773 247.83 297.982 247.621 297.281 247.205C296.585 246.788 296.034 246.182 295.626 245.386C295.224 244.591 295.023 243.625 295.023 242.489C295.023 241.371 295.219 240.398 295.612 239.57C296.005 238.736 296.552 238.092 297.253 237.638C297.954 237.179 298.763 236.949 299.682 236.949C300.392 236.949 300.955 237.067 301.372 237.304C301.794 237.536 302.116 237.801 302.338 238.099C302.565 238.393 302.741 238.634 302.864 238.824H303.034V237.091H304.653V248.312C304.653 249.25 304.44 250.012 304.014 250.599C303.593 251.191 303.025 251.625 302.31 251.899C301.599 252.179 300.809 252.318 299.938 252.318ZM299.881 246.324C300.553 246.324 301.121 246.17 301.585 245.862C302.049 245.554 302.402 245.112 302.643 244.534C302.885 243.956 303.006 243.265 303.006 242.46C303.006 241.674 302.887 240.981 302.651 240.379C302.414 239.778 302.063 239.307 301.599 238.966C301.135 238.625 300.563 238.455 299.881 238.455C299.17 238.455 298.579 238.634 298.105 238.994C297.636 239.354 297.284 239.837 297.047 240.443C296.815 241.049 296.699 241.722 296.699 242.46C296.699 243.218 296.817 243.888 297.054 244.47C297.295 245.048 297.651 245.502 298.119 245.834C298.593 246.161 299.18 246.324 299.881 246.324ZM312.295 248.227C311.244 248.227 310.338 247.995 309.575 247.531C308.818 247.062 308.233 246.409 307.821 245.571C307.414 244.728 307.21 243.748 307.21 242.631C307.21 241.513 307.414 240.528 307.821 239.676C308.233 238.819 308.806 238.152 309.54 237.673C310.278 237.19 311.14 236.949 312.125 236.949C312.693 236.949 313.254 237.044 313.808 237.233C314.362 237.422 314.866 237.73 315.321 238.156C315.776 238.578 316.138 239.136 316.408 239.832C316.678 240.528 316.812 241.385 316.812 242.403V243.114H308.403V241.665H315.108C315.108 241.049 314.985 240.5 314.739 240.017C314.497 239.534 314.152 239.153 313.702 238.874C313.257 238.594 312.731 238.455 312.125 238.455C311.457 238.455 310.88 238.62 310.392 238.952C309.909 239.278 309.537 239.705 309.277 240.23C309.017 240.756 308.886 241.319 308.886 241.92V242.886C308.886 243.71 309.028 244.409 309.312 244.982C309.601 245.55 310.001 245.983 310.513 246.281C311.024 246.575 311.618 246.722 312.295 246.722C312.736 246.722 313.134 246.66 313.489 246.537C313.848 246.409 314.159 246.22 314.419 245.969C314.679 245.713 314.881 245.396 315.023 245.017L316.642 245.472C316.472 246.021 316.185 246.504 315.783 246.92C315.38 247.332 314.883 247.654 314.291 247.886C313.699 248.114 313.034 248.227 312.295 248.227ZM324.107 237.091V238.511H318.453V237.091H324.107ZM320.101 234.477H321.777V244.875C321.777 245.348 321.846 245.704 321.983 245.94C322.125 246.172 322.305 246.329 322.523 246.409C322.745 246.485 322.98 246.523 323.226 246.523C323.411 246.523 323.562 246.513 323.68 246.494C323.799 246.471 323.893 246.452 323.964 246.438L324.305 247.943C324.192 247.986 324.033 248.028 323.83 248.071C323.626 248.118 323.368 248.142 323.055 248.142C322.582 248.142 322.118 248.04 321.663 247.837C321.214 247.633 320.839 247.323 320.541 246.906C320.248 246.49 320.101 245.964 320.101 245.33V234.477ZM335.463 248.256C334.772 248.256 334.144 248.125 333.581 247.865C333.018 247.6 332.57 247.219 332.239 246.722C331.907 246.22 331.741 245.614 331.741 244.903C331.741 244.278 331.865 243.772 332.111 243.384C332.357 242.991 332.686 242.683 333.098 242.46C333.51 242.238 333.964 242.072 334.462 241.963C334.964 241.849 335.468 241.759 335.974 241.693C336.637 241.608 337.175 241.544 337.587 241.501C338.003 241.454 338.306 241.376 338.496 241.267C338.69 241.158 338.787 240.969 338.787 240.699V240.642C338.787 239.941 338.595 239.397 338.212 239.009C337.833 238.62 337.258 238.426 336.486 238.426C335.686 238.426 335.058 238.601 334.604 238.952C334.149 239.302 333.83 239.676 333.645 240.074L332.054 239.506C332.338 238.843 332.717 238.327 333.19 237.957C333.669 237.583 334.189 237.323 334.753 237.176C335.321 237.025 335.88 236.949 336.429 236.949C336.779 236.949 337.182 236.991 337.636 237.077C338.096 237.157 338.538 237.325 338.964 237.581C339.395 237.837 339.753 238.223 340.037 238.739C340.321 239.255 340.463 239.946 340.463 240.812V248H338.787V246.523H338.702C338.588 246.759 338.399 247.013 338.134 247.283C337.868 247.553 337.516 247.782 337.075 247.972C336.635 248.161 336.098 248.256 335.463 248.256ZM335.719 246.75C336.382 246.75 336.94 246.62 337.395 246.359C337.854 246.099 338.2 245.763 338.432 245.351C338.669 244.939 338.787 244.506 338.787 244.051V242.517C338.716 242.602 338.56 242.68 338.318 242.751C338.081 242.818 337.807 242.877 337.494 242.929C337.187 242.976 336.886 243.019 336.592 243.057C336.304 243.09 336.069 243.118 335.889 243.142C335.454 243.199 335.046 243.291 334.668 243.419C334.294 243.542 333.991 243.729 333.759 243.98C333.531 244.226 333.418 244.562 333.418 244.989C333.418 245.571 333.633 246.011 334.064 246.31C334.5 246.603 335.051 246.75 335.719 246.75ZM354.005 237.091V238.511H348.125V237.091H354.005ZM349.886 248V235.585C349.886 234.96 350.033 234.439 350.326 234.023C350.62 233.606 351.001 233.294 351.47 233.085C351.939 232.877 352.433 232.773 352.954 232.773C353.366 232.773 353.702 232.806 353.963 232.872C354.223 232.938 354.417 233 354.545 233.057L354.062 234.506C353.977 234.477 353.859 234.442 353.707 234.399C353.56 234.357 353.366 234.335 353.125 234.335C352.571 234.335 352.171 234.475 351.924 234.754C351.683 235.034 351.562 235.443 351.562 235.983V248H349.886ZM356.354 248V237.091H357.974V238.739H358.087C358.286 238.199 358.646 237.761 359.167 237.425C359.688 237.089 360.275 236.92 360.928 236.92C361.051 236.92 361.205 236.923 361.39 236.928C361.575 236.932 361.714 236.939 361.809 236.949V238.653C361.752 238.639 361.622 238.618 361.418 238.589C361.219 238.556 361.009 238.54 360.786 238.54C360.256 238.54 359.782 238.651 359.366 238.874C358.954 239.091 358.627 239.394 358.386 239.783C358.149 240.166 358.031 240.604 358.031 241.097V248H356.354ZM368.038 248.227C366.987 248.227 366.08 247.995 365.317 247.531C364.56 247.062 363.975 246.409 363.563 245.571C363.156 244.728 362.952 243.748 362.952 242.631C362.952 241.513 363.156 240.528 363.563 239.676C363.975 238.819 364.548 238.152 365.282 237.673C366.021 237.19 366.882 236.949 367.867 236.949C368.435 236.949 368.996 237.044 369.55 237.233C370.104 237.422 370.609 237.73 371.063 238.156C371.518 238.578 371.88 239.136 372.15 239.832C372.42 240.528 372.555 241.385 372.555 242.403V243.114H364.146V241.665H370.85C370.85 241.049 370.727 240.5 370.481 240.017C370.239 239.534 369.894 239.153 369.444 238.874C368.999 238.594 368.473 238.455 367.867 238.455C367.2 238.455 366.622 238.62 366.134 238.952C365.651 239.278 365.28 239.705 365.019 240.23C364.759 240.756 364.629 241.319 364.629 241.92V242.886C364.629 243.71 364.771 244.409 365.055 244.982C365.344 245.55 365.744 245.983 366.255 246.281C366.766 246.575 367.361 246.722 368.038 246.722C368.478 246.722 368.876 246.66 369.231 246.537C369.591 246.409 369.901 246.22 370.161 245.969C370.422 245.713 370.623 245.396 370.765 245.017L372.384 245.472C372.214 246.021 371.927 246.504 371.525 246.92C371.122 247.332 370.625 247.654 370.033 247.886C369.442 248.114 368.776 248.227 368.038 248.227ZM379.678 248.227C378.627 248.227 377.72 247.995 376.958 247.531C376.201 247.062 375.616 246.409 375.204 245.571C374.797 244.728 374.593 243.748 374.593 242.631C374.593 241.513 374.797 240.528 375.204 239.676C375.616 238.819 376.189 238.152 376.923 237.673C377.661 237.19 378.523 236.949 379.508 236.949C380.076 236.949 380.637 237.044 381.191 237.233C381.745 237.422 382.249 237.73 382.704 238.156C383.158 238.578 383.521 239.136 383.79 239.832C384.06 240.528 384.195 241.385 384.195 242.403V243.114H375.786V241.665H382.491C382.491 241.049 382.368 240.5 382.121 240.017C381.88 239.534 381.534 239.153 381.085 238.874C380.639 238.594 380.114 238.455 379.508 238.455C378.84 238.455 378.263 238.62 377.775 238.952C377.292 239.278 376.92 239.705 376.66 240.23C376.399 240.756 376.269 241.319 376.269 241.92V242.886C376.269 243.71 376.411 244.409 376.695 244.982C376.984 245.55 377.384 245.983 377.896 246.281C378.407 246.575 379.001 246.722 379.678 246.722C380.119 246.722 380.516 246.66 380.871 246.537C381.231 246.409 381.541 246.22 381.802 245.969C382.062 245.713 382.263 245.396 382.406 245.017L384.025 245.472C383.854 246.021 383.568 246.504 383.165 246.92C382.763 247.332 382.266 247.654 381.674 247.886C381.082 248.114 380.417 248.227 379.678 248.227ZM404.131 233.455V248H402.427L394.501 236.58H394.359V248H392.597V233.455H394.302L402.256 244.903H402.398V233.455H404.131ZM407.656 248V233.455H416.377V235.017H409.417V239.932H415.724V241.494H409.417V248H407.656ZM418.599 235.017V233.455H429.508V235.017H424.934V248H423.173V235.017H418.599ZM440.096 248L436.772 237.091H438.533L440.891 245.443H441.005L443.334 237.091H445.124L447.425 245.415H447.539L449.897 237.091H451.658L448.334 248H446.686L444.3 239.619H444.13L441.743 248H440.096ZM455.55 241.438V248H453.874V233.455H455.55V238.795H455.692C455.948 238.232 456.331 237.785 456.843 237.453C457.359 237.117 458.045 236.949 458.902 236.949C459.646 236.949 460.297 237.098 460.855 237.396C461.414 237.69 461.847 238.142 462.155 238.753C462.468 239.359 462.624 240.131 462.624 241.068V248H460.948V241.182C460.948 240.315 460.723 239.645 460.273 239.172C459.828 238.694 459.21 238.455 458.419 238.455C457.87 238.455 457.378 238.571 456.942 238.803C456.511 239.035 456.17 239.373 455.919 239.818C455.673 240.263 455.55 240.803 455.55 241.438ZM470.264 248.227C469.213 248.227 468.306 247.995 467.544 247.531C466.786 247.062 466.202 246.409 465.79 245.571C465.383 244.728 465.179 243.748 465.179 242.631C465.179 241.513 465.383 240.528 465.79 239.676C466.202 238.819 466.775 238.152 467.509 237.673C468.247 237.19 469.109 236.949 470.094 236.949C470.662 236.949 471.223 237.044 471.777 237.233C472.331 237.422 472.835 237.73 473.29 238.156C473.744 238.578 474.107 239.136 474.376 239.832C474.646 240.528 474.781 241.385 474.781 242.403V243.114H466.372V241.665H473.077C473.077 241.049 472.954 240.5 472.707 240.017C472.466 239.534 472.12 239.153 471.67 238.874C471.225 238.594 470.7 238.455 470.094 238.455C469.426 238.455 468.848 238.62 468.361 238.952C467.878 239.278 467.506 239.705 467.246 240.23C466.985 240.756 466.855 241.319 466.855 241.92V242.886C466.855 243.71 466.997 244.409 467.281 244.982C467.57 245.55 467.97 245.983 468.482 246.281C468.993 246.575 469.587 246.722 470.264 246.722C470.705 246.722 471.102 246.66 471.457 246.537C471.817 246.409 472.127 246.22 472.388 245.969C472.648 245.713 472.849 245.396 472.991 245.017L474.611 245.472C474.44 246.021 474.154 246.504 473.751 246.92C473.349 247.332 472.852 247.654 472.26 247.886C471.668 248.114 471.003 248.227 470.264 248.227ZM479.007 241.438V248H477.331V237.091H478.95V238.795H479.092C479.348 238.241 479.736 237.796 480.257 237.46C480.778 237.119 481.45 236.949 482.274 236.949C483.013 236.949 483.659 237.1 484.213 237.403C484.767 237.702 485.198 238.156 485.506 238.767C485.813 239.373 485.967 240.14 485.967 241.068V248H484.291V241.182C484.291 240.325 484.069 239.657 483.624 239.179C483.179 238.696 482.568 238.455 481.791 238.455C481.256 238.455 480.778 238.571 480.357 238.803C479.94 239.035 479.611 239.373 479.369 239.818C479.128 240.263 479.007 240.803 479.007 241.438ZM497.127 248L493.803 237.091H495.564L497.922 245.443H498.036L500.365 237.091H502.155L504.456 245.415H504.57L506.928 237.091H508.689L505.365 248H503.718L501.331 239.619H501.161L498.775 248H497.127ZM515.108 248.227C514.057 248.227 513.15 247.995 512.388 247.531C511.63 247.062 511.045 246.409 510.634 245.571C510.226 244.728 510.023 243.748 510.023 242.631C510.023 241.513 510.226 240.528 510.634 239.676C511.045 238.819 511.618 238.152 512.352 237.673C513.091 237.19 513.953 236.949 514.938 236.949C515.506 236.949 516.067 237.044 516.621 237.233C517.175 237.422 517.679 237.73 518.134 238.156C518.588 238.578 518.95 239.136 519.22 239.832C519.49 240.528 519.625 241.385 519.625 242.403V243.114H511.216V241.665H517.92C517.92 241.049 517.797 240.5 517.551 240.017C517.31 239.534 516.964 239.153 516.514 238.874C516.069 238.594 515.544 238.455 514.938 238.455C514.27 238.455 513.692 238.62 513.205 238.952C512.722 239.278 512.35 239.705 512.089 240.23C511.829 240.756 511.699 241.319 511.699 241.92V242.886C511.699 243.71 511.841 244.409 512.125 244.982C512.414 245.55 512.814 245.983 513.325 246.281C513.837 246.575 514.431 246.722 515.108 246.722C515.548 246.722 515.946 246.66 516.301 246.537C516.661 246.409 516.971 246.22 517.232 245.969C517.492 245.713 517.693 245.396 517.835 245.017L519.455 245.472C519.284 246.021 518.998 246.504 518.595 246.92C518.193 247.332 517.696 247.654 517.104 247.886C516.512 248.114 515.847 248.227 515.108 248.227ZM529.476 233.455V248H527.8V233.455H529.476ZM535.756 248.256C535.065 248.256 534.437 248.125 533.874 247.865C533.31 247.6 532.863 247.219 532.532 246.722C532.2 246.22 532.034 245.614 532.034 244.903C532.034 244.278 532.158 243.772 532.404 243.384C532.65 242.991 532.979 242.683 533.391 242.46C533.803 242.238 534.257 242.072 534.755 241.963C535.257 241.849 535.761 241.759 536.267 241.693C536.93 241.608 537.468 241.544 537.88 241.501C538.296 241.454 538.599 241.376 538.789 241.267C538.983 241.158 539.08 240.969 539.08 240.699V240.642C539.08 239.941 538.888 239.397 538.505 239.009C538.126 238.62 537.551 238.426 536.779 238.426C535.979 238.426 535.351 238.601 534.897 238.952C534.442 239.302 534.123 239.676 533.938 240.074L532.347 239.506C532.631 238.843 533.01 238.327 533.483 237.957C533.962 237.583 534.482 237.323 535.046 237.176C535.614 237.025 536.173 236.949 536.722 236.949C537.072 236.949 537.475 236.991 537.929 237.077C538.389 237.157 538.831 237.325 539.257 237.581C539.688 237.837 540.046 238.223 540.33 238.739C540.614 239.255 540.756 239.946 540.756 240.812V248H539.08V246.523H538.995C538.881 246.759 538.692 247.013 538.426 247.283C538.161 247.553 537.809 247.782 537.368 247.972C536.928 248.161 536.391 248.256 535.756 248.256ZM536.012 246.75C536.675 246.75 537.233 246.62 537.688 246.359C538.147 246.099 538.493 245.763 538.725 245.351C538.962 244.939 539.08 244.506 539.08 244.051V242.517C539.009 242.602 538.853 242.68 538.611 242.751C538.374 242.818 538.1 242.877 537.787 242.929C537.48 242.976 537.179 243.019 536.885 243.057C536.596 243.09 536.362 243.118 536.182 243.142C535.747 243.199 535.339 243.291 534.961 243.419C534.587 243.542 534.283 243.729 534.051 243.98C533.824 244.226 533.711 244.562 533.711 244.989C533.711 245.571 533.926 246.011 534.357 246.31C534.792 246.603 535.344 246.75 536.012 246.75ZM550.69 243.54V237.091H552.366V248H550.69V246.153H550.577C550.321 246.707 549.923 247.179 549.384 247.567C548.844 247.95 548.162 248.142 547.338 248.142C546.656 248.142 546.05 247.993 545.52 247.695C544.99 247.392 544.573 246.937 544.27 246.331C543.967 245.72 543.815 244.951 543.815 244.023V237.091H545.491V243.909C545.491 244.705 545.714 245.339 546.159 245.812C546.609 246.286 547.182 246.523 547.878 246.523C548.295 246.523 548.718 246.416 549.149 246.203C549.585 245.99 549.949 245.663 550.243 245.223C550.541 244.783 550.69 244.222 550.69 243.54ZM557.113 241.438V248H555.436V237.091H557.056V238.795H557.198C557.453 238.241 557.842 237.796 558.363 237.46C558.883 237.119 559.556 236.949 560.38 236.949C561.118 236.949 561.765 237.1 562.319 237.403C562.873 237.702 563.303 238.156 563.611 238.767C563.919 239.373 564.073 240.14 564.073 241.068V248H562.397V241.182C562.397 240.325 562.174 239.657 561.729 239.179C561.284 238.696 560.673 238.455 559.897 238.455C559.362 238.455 558.883 238.571 558.462 238.803C558.045 239.035 557.716 239.373 557.475 239.818C557.233 240.263 557.113 240.803 557.113 241.438ZM571.567 248.227C570.545 248.227 569.664 247.986 568.925 247.503C568.187 247.02 567.619 246.355 567.221 245.507C566.823 244.66 566.624 243.691 566.624 242.602C566.624 241.494 566.828 240.517 567.235 239.669C567.647 238.817 568.22 238.152 568.954 237.673C569.692 237.19 570.554 236.949 571.539 236.949C572.306 236.949 572.997 237.091 573.613 237.375C574.228 237.659 574.733 238.057 575.126 238.568C575.519 239.08 575.763 239.676 575.857 240.358H574.181C574.053 239.861 573.769 239.42 573.329 239.037C572.893 238.649 572.306 238.455 571.567 238.455C570.914 238.455 570.341 238.625 569.849 238.966C569.361 239.302 568.98 239.778 568.705 240.393C568.435 241.004 568.3 241.722 568.3 242.545C568.3 243.388 568.433 244.122 568.698 244.747C568.968 245.372 569.347 245.857 569.835 246.203C570.327 246.549 570.905 246.722 571.567 246.722C572.003 246.722 572.398 246.646 572.754 246.494C573.109 246.343 573.409 246.125 573.656 245.841C573.902 245.557 574.077 245.216 574.181 244.818H575.857C575.763 245.462 575.528 246.042 575.154 246.558C574.785 247.07 574.295 247.477 573.684 247.78C573.078 248.078 572.372 248.227 571.567 248.227ZM579.984 241.438V248H578.308V233.455H579.984V238.795H580.126C580.381 238.232 580.765 237.785 581.276 237.453C581.792 237.117 582.479 236.949 583.336 236.949C584.079 236.949 584.73 237.098 585.289 237.396C585.848 237.69 586.281 238.142 586.589 238.753C586.901 239.359 587.058 240.131 587.058 241.068V248H585.381V241.182C585.381 240.315 585.156 239.645 584.707 239.172C584.262 238.694 583.644 238.455 582.853 238.455C582.304 238.455 581.811 238.571 581.376 238.803C580.945 239.035 580.604 239.373 580.353 239.818C580.107 240.263 579.984 240.803 579.984 241.438ZM591.346 248.114C590.995 248.114 590.694 247.988 590.444 247.737C590.193 247.486 590.067 247.186 590.067 246.835C590.067 246.485 590.193 246.184 590.444 245.933C590.694 245.682 590.995 245.557 591.346 245.557C591.696 245.557 591.997 245.682 592.248 245.933C592.498 246.184 592.624 246.485 592.624 246.835C592.624 247.067 592.565 247.28 592.446 247.474C592.333 247.669 592.179 247.825 591.985 247.943C591.795 248.057 591.582 248.114 591.346 248.114Z" fill="#111111"/>
<defs>
<filter id="filter0_f_1_171" x="-394" y="-540" width="1577" height="1577" filterUnits="userSpaceOnUse" color-interpolation-filters="sRGB">
<feFlood flood-opacity="0" result="BackgroundImageFix"/>
<feBlend mode="normal" in="SourceGraphic" in2="BackgroundImageFix" result="shape"/>
<feGaussianBlur stdDeviation="146" result="effect1_foregroundBlur_1_171"/>
</filter>
<filter id="filter1_f_1_171" x="616" y="-393" width="1075" height="1075" filterUnits="userSpaceOnUse" color-interpolation-filters="sRGB">
<feFlood flood-opacity="0" result="BackgroundImageFix"/>
<feBlend mode="normal" in="SourceGraphic" in2="BackgroundImageFix" result="shape"/>
<feGaussianBlur stdDeviation="146" result="effect1_foregroundBlur_1_171"/>
</filter>
<filter id="filter2_f_1_171" x="2" y="-407" width="1577" height="1577" filterUnits="userSpaceOnUse" color-interpolation-filters="sRGB">
<feFlood flood-opacity="0" result="BackgroundImageFix"/>
<feBlend mode="normal" in="SourceGraphic" in2="BackgroundImageFix" result="shape"/>
<feGaussianBlur stdDeviation="146" result="effect1_foregroundBlur_1_171"/>
</filter>
<filter id="filter3_f_1_171" x="-399" y="-374" width="910" height="910" filterUnits="userSpaceOnUse" color-interpolation-filters="sRGB">
<feFlood flood-opacity="0" result="BackgroundImageFix"/>
<feBlend mode="normal" in="SourceGraphic" in2="BackgroundImageFix" result="shape"/>
<feGaussianBlur stdDeviation="146" result="effect1_foregroundBlur_1_171"/>
</filter>
</defs>
</svg>
